<svg width="30" height="27" viewBox="0 0 30 27" fill="none" xmlns="http://www.w3.org/2000/svg">
<path d="M26.1833 17.1568C25.8695 16.843 25.4438 16.6667 25 16.6667C24.5562 16.6667 24.1305 16.843 23.8167 17.1568C23.5028 17.4707 23.3265 17.8963 23.3265 18.3402C23.3265 18.784 23.5028 19.2096 23.8167 19.5235L24.3 20.0068H21.6667C19.8986 20.0068 18.2029 19.3044 16.9526 18.0542C15.7024 16.804 15 15.1083 15 13.3402C15 11.572 15.7024 9.87635 16.9526 8.62611C18.2029 7.37586 19.8986 6.67349 21.6667 6.67349H24.3167L23.8167 7.15682C23.6605 7.31176 23.5365 7.49609 23.4518 7.69919C23.3672 7.90229 23.3237 8.12013 23.3237 8.34015C23.3237 8.56017 23.3672 8.77802 23.4518 8.98111C23.5365 9.18421 23.6605 9.36855 23.8167 9.52349C23.9724 9.67795 24.1571 9.80016 24.3602 9.8831C24.5632 9.96605 24.7807 10.0081 25 10.0068C25.2193 10.0081 25.4368 9.96605 25.6398 9.8831C25.8429 9.80016 26.0276 9.67795 26.1833 9.52349L29.5167 6.19015C29.6711 6.03442 29.7933 5.84973 29.8763 5.64666C29.9592 5.4436 30.0013 5.22616 30 5.00682C30.0013 4.78748 29.9592 4.57004 29.8763 4.36698C29.7933 4.16391 29.6711 3.97922 29.5167 3.82349L26.1833 0.490153C26.0279 0.334755 25.8434 0.211488 25.6404 0.127387C25.4374 0.0432865 25.2198 0 25 0C24.5562 0 24.1305 0.176313 23.8167 0.490153C23.5028 0.803992 23.3265 1.22965 23.3265 1.67349C23.3265 2.11732 23.5028 2.54298 23.8167 2.85682L24.3 3.34015H21.6667C20.0155 3.34136 18.3903 3.75143 16.9361 4.53374C15.482 5.31606 14.2442 6.44627 13.3333 7.82349C12.4224 6.44627 11.1846 5.31606 9.73053 4.53374C8.27641 3.75143 6.6512 3.34136 5 3.34015H1.66667C1.22464 3.34015 0.800716 3.51575 0.488155 3.82831C0.175595 4.14087 0 4.56479 0 5.00682C0 5.44885 0.175595 5.87277 0.488155 6.18533C0.800716 6.49789 1.22464 6.67349 1.66667 6.67349H5C6.76811 6.67349 8.4638 7.37586 9.71404 8.62611C10.9643 9.87635 11.6667 11.572 11.6667 13.3402C11.6667 15.1083 10.9643 16.804 9.71404 18.0542C8.4638 19.3044 6.76811 20.0068 5 20.0068H1.66667C1.22464 20.0068 0.800716 20.1824 0.488155 20.495C0.175595 20.8075 0 21.2315 0 21.6735C0 22.1155 0.175595 22.5394 0.488155 22.852C0.800716 23.1646 1.22464 23.3402 1.66667 23.3402H5C6.6512 23.3389 8.27641 22.9289 9.73053 22.1466C11.1846 21.3642 12.4224 20.234 13.3333 18.8568C14.2442 20.234 15.482 21.3642 16.9361 22.1466C18.3903 22.9289 20.0155 23.3389 21.6667 23.3402H24.3167L23.8167 23.8235C23.6605 23.9784 23.5365 24.1628 23.4518 24.3659C23.3672 24.569 23.3237 24.7868 23.3237 25.0068C23.3237 25.2268 23.3672 25.4447 23.4518 25.6478C23.5365 25.8509 23.6605 26.0352 23.8167 26.1901C23.9724 26.3446 24.1571 26.4668 24.3602 26.5498C24.5632 26.6327 24.7807 26.6748 25 26.6735C25.2193 26.6748 25.4368 26.6327 25.6398 26.5498C25.8429 26.4668 26.0276 26.3446 26.1833 26.1901L29.5167 22.8568C29.6711 22.7011 29.7933 22.5164 29.8763 22.3133C29.9592 22.1103 30.0013 21.8928 30 21.6735C30.0013 21.4541 29.9592 21.2367 29.8763 21.0336C29.7933 20.8306 29.6711 20.6459 29.5167 20.4902L26.1833 17.1568Z" fill="#333D64"/>
</svg>
