<svg width="20" height="20" viewBox="0 0 20 20" fill="none" xmlns="http://www.w3.org/2000/svg">
<path d="M18.9929 3.02143C19.5491 2.4652 19.5491 1.56337 18.9929 1.00714C18.4366 0.450913 17.5348 0.450913 16.9786 1.00714L10.7071 7.27861C10.3166 7.66913 9.68342 7.66913 9.29289 7.27861L3.02143 1.00714C2.4652 0.450912 1.56337 0.450913 1.00714 1.00714C0.450913 1.56337 0.450913 2.4652 1.00714 3.02143L7.27861 9.29289C7.66913 9.68342 7.66913 10.3166 7.27861 10.7071L1.00714 16.9786C0.450912 17.5348 0.450913 18.4366 1.00714 18.9929C1.56337 19.5491 2.4652 19.5491 3.02143 18.9929L9.29289 12.7214C9.68342 12.3309 10.3166 12.3309 10.7071 12.7214L16.9786 18.9929C17.5348 19.5491 18.4366 19.5491 18.9929 18.9929C19.5491 18.4366 19.5491 17.5348 18.9929 16.9786L12.7214 10.7071C12.3309 10.3166 12.3309 9.68342 12.7214 9.29289L18.9929 3.02143Z" fill="#333D64"/>
</svg>
