<svg width="46" height="57" viewBox="0.08807373046875 0.0987548828125 45.8238525390625 56.802490234375" fill="none" xmlns="http://www.w3.org/2000/svg">
<path d="M0 49.3362C0 53.5688 3.43123 57 7.66387 57C11.8965 57 15.3277 53.5688 15.3277 49.3362V7.66387C15.3277 3.43123 11.8965 0 7.66387 0C3.43123 0 0 3.43123 0 7.66387V49.3362ZM38.3193 0C34.0867 0 30.6555 3.43123 30.6555 7.66387V49.3362C30.6555 53.5688 34.0867 57 38.3193 57C42.552 57 45.9832 53.5688 45.9832 49.3362V7.66387C45.9832 3.43123 42.552 0 38.3193 0Z" fill="url(#paint0_linear_0_16)"/>
<defs>
<linearGradient id="paint0_linear_0_16" x1="9.10559" y1="57" x2="63.4975" y2="14.5527" gradientUnits="userSpaceOnUse">
<stop stop-color="#3F57FF"/>
<stop offset="1" stop-color="#AF71FF"/>
</linearGradient>
</defs>
</svg>
