<svg width="24" height="24" viewBox="0.348388671875 0.35626220703125 23.30322265625 23.2874755859375" fill="none" xmlns="http://www.w3.org/2000/svg">
<path d="M23.014 13.912C22.6788 13.8075 22.3159 13.8398 22.0044 14.0018C21.6929 14.1638 21.4581 14.4423 21.3511 14.7767C20.7227 16.6983 19.4974 18.3692 17.8538 19.5463C16.2101 20.7235 14.2336 21.3454 12.212 21.3217C9.71157 21.3501 7.30187 20.3858 5.51135 18.6402C3.72083 16.8945 2.69564 14.5101 2.66058 12.0097C2.69564 9.5093 3.72083 7.12486 5.51135 5.37922C7.30187 3.63359 9.71157 2.66926 12.212 2.69768C14.4703 2.69222 16.6591 3.4783 18.3979 4.91926L15.5112 4.44036C15.3382 4.41189 15.1612 4.4179 14.9905 4.45805C14.8199 4.4982 14.6588 4.5717 14.5166 4.67431C14.3745 4.77692 14.254 4.90662 14.1621 5.05596C14.0703 5.2053 14.0088 5.37133 13.9813 5.54449C13.9529 5.7175 13.9589 5.89443 13.999 6.06511C14.0392 6.23578 14.1127 6.39684 14.2153 6.53901C14.3179 6.68118 14.4476 6.80167 14.5969 6.89353C14.7463 6.9854 14.9123 7.04685 15.0855 7.07433L20.7259 8.00553H20.952C21.1063 8.00535 21.2593 7.97834 21.4043 7.92571C21.4531 7.90721 21.4981 7.88019 21.5374 7.84589C21.6327 7.81043 21.7224 7.76112 21.8034 7.69956L21.9231 7.55323C21.9231 7.48672 22.0429 7.4335 22.0961 7.35369C22.1493 7.27387 22.0961 7.22066 22.1626 7.16745C22.1994 7.08997 22.2305 7.00995 22.2557 6.928L23.2534 1.60684C23.2866 1.43215 23.2851 1.25262 23.2489 1.07852C23.2127 0.904422 23.1426 0.739155 23.0425 0.592156C22.9425 0.445157 22.8144 0.319305 22.6657 0.221786C22.517 0.124267 22.3506 0.0569911 22.1759 0.0237988C22.0012 -0.00939338 21.8217 -0.00785172 21.6476 0.0283359C21.4735 0.0645235 21.3082 0.134648 21.1612 0.234707C20.8643 0.436783 20.6599 0.748518 20.5929 1.10133L20.2337 3.03025C18.0068 1.10032 15.1589 0.0376748 12.212 0.0371017C9.00596 0.00872305 5.91956 1.25338 3.6301 3.49795C1.34063 5.74253 0.0351075 8.80368 0 12.0097C0.0351075 15.2157 1.34063 18.2769 3.6301 20.5214C5.91956 22.766 9.00596 24.0107 12.212 23.9823C14.8103 24.0222 17.3527 23.2268 19.465 21.7133C21.5772 20.1998 23.1477 18.048 23.9452 15.5749C23.9956 15.4046 24.0115 15.2259 23.9918 15.0493C23.9721 14.8728 23.9172 14.702 23.8304 14.547C23.7436 14.392 23.6266 14.256 23.4864 14.1469C23.3462 14.0379 23.1856 13.958 23.014 13.912Z" fill="#333D64"/>
</svg>
