<svg width="10" height="17" viewBox="0.000030517578125 0.1631622314453125 9.99993896484375 16.673675537109375" fill="none" xmlns="http://www.w3.org/2000/svg">
<path d="M8.10981 16.6736C7.8853 16.6727 7.66328 16.6265 7.45707 16.5377C7.25086 16.449 7.06472 16.3194 6.90981 16.1569L0.476432 9.49021C0.171052 9.17866 0 8.75979 0 8.32354C0 7.88728 0.171052 7.46841 0.476432 7.15686L7.14314 0.490156C7.29854 0.334757 7.48302 0.211489 7.68606 0.127388C7.8891 0.0432868 8.10671 3.27478e-09 8.32648 0C8.54625 -3.27478e-09 8.76386 0.0432868 8.9669 0.127388C9.16994 0.211489 9.35442 0.334757 9.50982 0.490156C9.66522 0.645554 9.78849 0.830039 9.87259 1.03308C9.95669 1.23612 9.99998 1.45373 9.99998 1.6735C9.99998 1.89326 9.95669 2.11088 9.87259 2.31392C9.78849 2.51695 9.66522 2.70144 9.50982 2.85684L4.00979 8.3402L9.30982 13.8402C9.62024 14.1525 9.79448 14.5749 9.79448 15.0152C9.79448 15.4556 9.62024 15.878 9.30982 16.1903C9.15211 16.3467 8.9647 16.4701 8.75863 16.5531C8.55255 16.6361 8.33195 16.6771 8.10981 16.6736Z" fill="#231F20"/>
</svg>
