<svg width="8" height="13" viewBox="0.250030517578125 0.2473602294921875 7.49993896484375 12.505279541015625" fill="none" xmlns="http://www.w3.org/2000/svg">
<path d="M6.32294 12.9998C6.1479 12.9992 5.9748 12.9631 5.81402 12.8939C5.65325 12.8247 5.50812 12.7237 5.38734 12.597L0.371457 7.39919C0.133363 7.15629 0 6.82971 0 6.48958C0 6.14944 0.133363 5.82287 0.371457 5.57996L5.56926 0.382158C5.69042 0.260999 5.83426 0.164891 5.99256 0.0993199C6.15086 0.0337492 6.32053 2.55323e-09 6.49187 0C6.66322 -2.55323e-09 6.83288 0.0337492 6.99119 0.0993199C7.14949 0.164891 7.29332 0.260999 7.41448 0.382158C7.53564 0.503317 7.63175 0.647153 7.69732 0.805455C7.76289 0.963757 7.79664 1.13342 7.79664 1.30477C7.79664 1.47611 7.76289 1.64578 7.69732 1.80408C7.63175 1.96238 7.53564 2.10622 7.41448 2.22738L3.12629 6.50257L7.25855 10.7908C7.50057 11.0342 7.63642 11.3636 7.63642 11.7069C7.63642 12.0502 7.50057 12.3795 7.25855 12.623C7.13559 12.745 6.98947 12.8412 6.8288 12.9059C6.66813 12.9706 6.49614 13.0025 6.32294 12.9998Z" fill="#231F20"/>
</svg>
